<?xml version="1.0" encoding="UTF-8"?>
<svg width="198px" height="43px" viewBox="0 0 198 43" version="1.1" xmlns="http://www.w3.org/2000/svg" xmlns:xlink="http://www.w3.org/1999/xlink">
    <!-- Generator: Sketch 52.5 (67469) - http://www.bohemiancoding.com/sketch -->
    <title>Group 5</title>
    <desc>Created with Sketch.</desc>
    <g id="Symbols" stroke="none" stroke-width="1" fill="none" fill-rule="evenodd">
        <g id="menu-/-scroll-/-general" transform="translate(-620.000000, -20.000000)">
            <g id="Group-5" transform="translate(620.000000, 20.000000)">
                <g id="Group-27" transform="translate(51.231527, 6.425287)" fill="#285560">
                    <path d="M8.75150165,13.0298759 L8.75150165,12.7073759 C8.75150165,10.5008389 7.88119905,9.39796852 6.14140042,9.39796852 C5.19124614,9.39796852 4.45967574,9.84707963 3.94588264,10.7453019 C3.43128295,11.6435241 3.17398311,12.9805056 3.17398311,14.7578389 C3.17398311,18.1166167 4.29190657,19.7952093 6.5269469,19.7952093 C7.63438478,19.7952093 8.83054674,19.3070796 10.1162394,18.3308204 C10.3937038,18.4876907 10.659876,18.740913 10.9171759,19.0920796 C11.1744757,19.4440426 11.3422449,19.7856537 11.42129,20.116913 C9.95814919,21.562987 8.18770043,22.2844315 6.11155687,22.2844315 C5.06299951,22.2844315 4.15317436,22.0988944 3.38208142,21.7286167 C2.63034645,21.3376352 1.99717913,20.8009315 1.48338602,20.116913 C0.988950901,19.434487 0.613083419,18.6143019 0.356590159,17.65795 C0.118648298,16.7000056 8.0658258e-05,15.6465056 8.0658258e-05,14.4942648 C8.0658258e-05,13.3030056 0.167849835,12.2487093 0.504194771,11.3305796 C0.840539707,10.3933389 1.28577329,9.61296852 1.83908894,8.98787593 C2.41256915,8.36357963 3.06590104,7.88500556 3.79747144,7.55295 C4.54920641,7.22089444 5.34046392,7.05526481 6.17124398,7.05526481 C7.02057543,7.05526481 7.77311698,7.18187593 8.42483571,7.43589444 C9.09833216,7.68991296 9.6613268,8.02117222 10.1162394,8.43206111 C10.5905099,8.84135741 10.9470194,9.31993148 11.1841547,9.86619074 C11.4414546,10.3933389 11.5697012,10.9300426 11.5697012,11.4778944 C11.5697012,12.5903204 11.0559081,13.1461352 10.0275153,13.1461352 C9.51291561,13.1461352 9.08784659,13.107913 8.75150165,13.0298759" id="Fill-1"></path>
                    <path d="M18.9866313,19.8832 C20.2521594,19.8832 21.4192844,19.2979222 22.4871997,18.1257741 L22.4871997,15.3435148 C22.0919742,15.3044963 21.6765842,15.2758296 21.2410296,15.2551259 C20.8062816,15.2360148 20.3505624,15.225663 19.8770985,15.225663 C18.9664667,15.225663 18.2542543,15.4518111 17.7404612,15.9001259 C17.2460261,16.3293296 16.9992118,16.9058481 16.9992118,17.6280889 C16.9992118,18.3312185 17.17666,18.8870333 17.5331695,19.2979222 C17.8888724,19.6881074 18.3736285,19.8832 18.9866313,19.8832 M26.3442776,20.5568667 C26.1063357,21.2599963 25.7207893,21.7775889 25.1868316,22.1088481 C24.0197066,21.8946444 23.2284491,21.2894593 22.8138656,20.2932926 C21.4096054,21.6215148 19.965016,22.2848296 18.4825172,22.2848296 C17.7299756,22.2848296 17.0685779,22.1669778 16.4950977,21.9328667 C15.9409755,21.6987556 15.4658983,21.3874037 15.0706729,20.9956259 C14.6948054,20.5863296 14.407662,20.127663 14.2100493,19.6196259 C14.0317945,19.0924778 13.943877,18.5454222 13.943877,17.9792556 C13.943877,16.3787 14.4576701,15.1675333 15.4860629,14.3473481 C16.5338137,13.5279593 17.918716,13.1178667 19.6391566,13.1178667 C20.1335917,13.1178667 20.6175413,13.1369778 21.0926184,13.1759963 C21.5676956,13.1959037 22.0322871,13.2444778 22.4871997,13.3225148 L22.4871997,12.1806259 C22.4871997,10.4431074 21.6765842,9.57434815 20.0545466,9.57434815 C18.9277508,9.57434815 17.3742727,9.94542222 15.3973388,10.6867741 C14.823052,10.1986444 14.5262296,9.46684815 14.5068717,8.48979259 C16.5241347,7.59157037 18.5712413,7.14245926 20.6481914,7.14245926 C22.1911839,7.14245926 23.3873459,7.55334815 24.2374839,8.37273704 C25.0876219,9.17381111 25.5134975,10.393737 25.5134975,12.0341074 L25.5134975,18.0381815 C25.5134975,19.2485519 25.7901554,20.0886444 26.3442776,20.5568667" id="Fill-3"></path>
                    <path d="M36.0150414,9.60285556 C34.7293488,9.60285556 33.6420755,10.2375037 32.7516083,11.5068 L32.7516083,18.6822259 C33.266208,19.0142815 33.7606431,19.2778556 34.2349137,19.4737444 C34.7293488,19.6489296 35.1939403,19.7373185 35.6294949,19.7373185 C36.5586781,19.7373185 37.300734,19.2874111 37.8540497,18.3891889 C38.4275299,17.4909667 38.7146733,16.2129111 38.7146733,14.5526333 C38.7146733,12.8541333 38.4573735,11.6047444 37.9435804,10.8036704 C37.4289807,10.0033926 36.7861344,9.60285556 36.0150414,9.60285556 M36.1336091,22.1668185 C35.0253646,22.1668185 33.8985687,21.8451148 32.7516083,21.2009111 L32.7516083,26.2677444 C32.7516083,26.9509667 32.6233617,27.4390963 32.3660618,27.7321333 C32.1289265,28.0442815 31.7030509,28.2003556 31.0908548,28.2003556 L29.9035652,28.2003556 L29.7253105,28.0251704 L29.7253105,7.49505926 L29.9035652,7.31907778 L30.8537195,7.31907778 C31.8417831,7.31907778 32.4451069,7.81676296 32.6620776,8.81213333 C33.8098446,7.64078148 35.1842614,7.0555037 36.7861344,7.0555037 C37.5773919,7.0555037 38.2887977,7.23068889 38.921965,7.58185556 C39.5551324,7.93302222 40.079411,8.44105926 40.4948011,9.10517037 C40.9295491,9.76928148 41.256215,10.5695593 41.4739923,11.5068 C41.7111276,12.4249296 41.8296952,13.4688741 41.8296952,14.6410222 C41.8296952,15.8123741 41.681284,16.8666704 41.3844616,17.8039111 C41.0884458,18.7411519 40.6722492,19.5318741 40.1382916,20.1760778 C39.6244985,20.8210778 39.0211747,21.318763 38.3291268,21.6691333 C37.637079,22.0011889 36.9055086,22.1668185 36.1336091,22.1668185" id="Fill-5"></path>
                    <path d="M44.9149543,4.71152593 C44.7366995,4.36035926 44.6479754,3.93115556 44.6479754,3.42311852 C44.6479754,2.62284074 44.7963866,2.15382222 45.093209,2.01765556 C45.3900314,1.86158148 45.8844665,1.77319259 46.5765144,1.75408148 C47.3677719,1.77319259 47.871886,1.87113704 48.0896633,2.04632222 C48.3074406,2.2223037 48.4260082,2.68097037 48.4453662,3.42311852 C48.4260082,4.12624815 48.3074406,4.57535926 48.0896633,4.77045185 C47.871886,4.96554444 47.3677719,5.07304444 46.5765144,5.09295185 C45.8054214,5.09295185 45.2512992,4.96554444 44.9149543,4.71152593 M48.623621,9.95434074 L48.623621,21.9043593 C48.2477535,21.9808037 47.7331538,22.0206185 47.0806285,22.0206185 C46.4474612,22.0206185 45.943347,21.9808037 45.5682861,21.9043593 L45.5682861,11.1846185 C45.5682861,10.637563 45.4690765,10.2473778 45.2706572,10.0132667 C45.0730444,9.77835926 44.7366995,9.6613037 44.262429,9.6613037 L43.935763,9.6613037 C43.8373599,9.2321 43.7881584,8.87137778 43.7881584,8.57754444 C43.7881584,8.28450741 43.8373599,7.91343333 43.935763,7.46511852 C44.5890949,7.38628519 45.2117766,7.34806296 45.8054214,7.34806296 L46.2208115,7.34806296 C46.9717398,7.34806296 47.5557056,7.58137778 47.9710957,8.0503963 C48.4058437,8.51941481 48.623621,9.15326667 48.623621,9.95434074" id="Fill-7"></path>
                    <path d="M60.4011785,7.40603333 C60.5003881,7.73808889 60.5495897,8.11951481 60.5495897,8.54871852 C60.5495897,8.97792222 60.5003881,9.3489963 60.4011785,9.66114444 L56.7521989,9.60301481 L56.7521989,18.3606815 C56.7521989,19.2190889 57.1579099,19.6490889 57.9685254,19.6490889 L60.015632,19.6490889 C60.1737222,20.0782926 60.2527673,20.5178481 60.2527673,20.966163 C60.2527673,21.396163 60.2334093,21.6796444 60.1938868,21.8166074 C59.0461197,21.9527741 57.9386819,22.0212556 56.8707665,22.0212556 C54.7938164,22.0212556 53.7557446,21.0163296 53.7557446,19.0040889 L53.7557446,9.63247778 L51.5610334,9.66114444 C51.4811817,9.32988519 51.4416592,8.96836667 51.4416592,8.57818148 C51.4416592,8.16808889 51.4811817,7.77710741 51.5610334,7.40603333 L53.7557446,7.46495926 L53.7557446,4.88734815 C53.7557446,4.18421852 53.8743122,3.68653333 54.1114475,3.39429259 C54.3493894,3.10125556 54.7744584,2.95473704 55.3874612,2.95473704 L56.5449072,2.95473704 L56.7521989,3.15938519 L56.7521989,7.49442222 L60.4011785,7.40603333 Z" id="Fill-9"></path>
                    <path d="M67.5804087,19.8832 C68.8459368,19.8832 70.0130618,19.2979222 71.0809771,18.1257741 L71.0809771,15.3435148 C70.6849451,15.3044963 70.269555,15.2758296 69.834807,15.2551259 C69.3992524,15.2360148 68.9443398,15.225663 68.4700693,15.225663 C67.5602441,15.225663 66.8480317,15.4518111 66.3342386,15.9001259 C65.8398035,16.3293296 65.5929892,16.9058481 65.5929892,17.6280889 C65.5929892,18.3312185 65.7704374,18.8870333 66.1261403,19.2979222 C66.4826498,19.6881074 66.9665994,19.8832 67.5804087,19.8832 M74.9372484,20.5568667 C74.7001131,21.2599963 74.3145667,21.7775889 73.780609,22.1088481 C72.613484,21.8946444 71.8222265,21.2894593 71.407643,20.2932926 C70.0025762,21.6215148 68.5587934,22.2848296 67.0762946,22.2848296 C66.323753,22.2848296 65.6615487,22.1669778 65.0880685,21.9328667 C64.5339463,21.6987556 64.0596757,21.3874037 63.6644503,20.9956259 C63.2885828,20.5863296 63.0014394,20.127663 62.8038267,19.6196259 C62.6255719,19.0924778 62.5368478,18.5454222 62.5368478,17.9792556 C62.5368478,16.3787 63.0514475,15.1675333 64.0790337,14.3473481 C65.1275911,13.5279593 66.5116868,13.1178667 68.232934,13.1178667 C68.7273691,13.1178667 69.2113187,13.1369778 69.6863958,13.1759963 C70.1606664,13.1959037 70.6260645,13.2444778 71.0809771,13.3225148 L71.0809771,12.1806259 C71.0809771,10.4431074 70.269555,9.57434815 68.648324,9.57434815 C67.5207216,9.57434815 65.9680501,9.94542222 63.9903096,10.6867741 C63.4168294,10.1986444 63.120007,9.46684815 63.1006491,8.48979259 C65.1179121,7.59157037 67.1642121,7.14245926 69.2419688,7.14245926 C70.7841547,7.14245926 71.9811233,7.55334815 72.8312613,8.37273704 C73.6813993,9.17381111 74.1072749,10.393737 74.1072749,12.0341074 L74.1072749,18.0381815 C74.1072749,19.2485519 74.3839328,20.0886444 74.9372484,20.5568667" id="Fill-11"></path>
                    <path d="M82.4431446,19.6490889 L83.5400969,19.6490889 C83.7183516,20.1364222 83.8070757,20.5664222 83.8070757,20.9374963 C83.8070757,21.3085704 83.7780388,21.6008111 83.7183516,21.8166074 C82.9279007,21.9527741 82.0874417,22.0212556 81.1969745,22.0212556 C79.238592,22.0212556 78.2594007,21.0163296 78.2594007,19.0040889 L78.2594007,0.553107407 L78.4674991,0.377922222 L79.6249451,0.377922222 C80.2379478,0.377922222 80.6630168,0.5332 80.9001521,0.846144444 C81.157452,1.13838519 81.2856986,1.62651481 81.2856986,2.31053333 L81.2856986,18.3312185 C81.2856986,19.2095333 81.6712451,19.6490889 82.4431446,19.6490889" id="Fill-13"></path>
                    <path d="M87.7229535,8.5484 C87.8616857,8.04036296 88.1778661,7.63106667 88.6723012,7.31891852 C89.7805457,7.72901111 90.4927581,8.59777037 90.8081319,9.9251963 C91.6195539,8.20678889 92.9447691,7.34758519 94.7837774,7.34758519 C95.1991674,7.34758519 95.65408,7.3866037 96.1477085,7.46543704 C96.1477085,8.30473333 95.9799394,8.98795556 95.6435944,9.5151037 C95.4064592,9.4951963 95.0604352,9.48564074 94.6055227,9.48564074 C93.0044562,9.48564074 91.7970021,10.3743074 90.9863866,12.1508444 L90.9863866,21.9038815 C90.6903708,21.9628074 90.3241823,21.9914741 89.8886277,21.9914741 C89.4538797,21.9914741 89.0876912,21.9628074 88.7908688,21.9038815 L88.7908688,11.5361037 C88.7908688,10.2086778 88.4351659,9.21251111 87.7229535,8.5484" id="Fill-15"></path>
                    <path d="M107.303068,18.0674056 L107.303068,15.1386278 C106.827991,15.0605907 106.333556,15.0120167 105.818956,14.9921093 C105.304357,14.9530907 104.761527,14.9331833 104.188046,14.9331833 C103.059637,14.9331833 102.200627,15.1975537 101.606982,15.7247019 C101.013337,16.2319426 100.716515,16.9056093 100.716515,17.7449056 C100.716515,18.5650907 100.924613,19.21885 101.339197,19.7077759 C101.755393,20.1759981 102.318388,20.4101093 103.0306,20.4101093 C103.762171,20.4101093 104.504227,20.2150167 105.255962,19.8248315 C106.027055,19.4139426 106.709423,18.8286648 107.303068,18.0674056 M110.269679,20.9961833 C110.051902,21.5424426 109.715557,21.9135167 109.260644,22.1086093 C108.291939,21.7582389 107.678936,21.0742204 107.420829,20.0589426 C105.898808,21.5233315 104.405017,22.2551278 102.941876,22.2551278 C102.190141,22.2551278 101.537616,22.1380722 100.983494,21.9039611 C100.430178,21.6690537 99.9647799,21.3577019 99.589719,20.9667204 C99.2332095,20.5765352 98.9565517,20.1274241 98.758939,19.619387 C98.5806842,19.1121463 98.4919602,18.5754426 98.4919602,18.0084796 C98.4919602,17.2281093 98.6202068,16.5440907 98.8775066,15.958813 C99.1533579,15.3536278 99.5203529,14.8551463 99.9752655,14.4649611 C100.449536,14.0739796 101.003658,13.7809426 101.636826,13.58585 C102.269993,13.3907574 102.950749,13.2936093 103.683932,13.2936093 C105.167238,13.2936093 106.373885,13.3812019 107.303068,13.5571833 L107.303068,12.0927944 C107.303068,10.1004611 106.412601,9.10509074 104.632473,9.10509074 C103.267736,9.10509074 101.656184,9.50562778 99.7962042,10.3059056 C99.2832177,9.85599815 99.0251112,9.29062778 99.0251112,8.60660926 C101.161748,7.69007222 103.099966,7.23060926 104.840572,7.23060926 C107.906392,7.23060926 109.438899,8.86062778 109.438899,12.1214611 L109.438899,18.1549981 C109.418734,18.8581278 109.478421,19.4442019 109.616347,19.9124241 C109.774437,20.3615352 109.992215,20.7230537 110.269679,20.9961833" id="Fill-17"></path>
                    <path d="M117.656282,20.3816019 C118.328971,20.3816019 119.01134,20.185713 119.703388,19.7955278 C120.415601,19.3854352 121.018924,18.8288241 121.512553,18.1256944 L121.512553,10.48125 C120.207502,9.60293519 119.060542,9.16337963 118.072478,9.16337963 C117.063443,9.16337963 116.212499,9.64275 115.521258,10.5991019 C114.828403,11.5363426 114.481573,12.9513611 114.481573,14.84575 C114.481573,16.7393426 114.779202,18.1360463 115.37204,19.0342685 C115.985849,19.9324907 116.746456,20.3816019 117.656282,20.3816019 M117.805499,7.28969444 C118.991176,7.28969444 120.227667,7.69023148 121.512553,8.48971296 L121.512553,0.553027778 L121.691614,0.377842593 L122.492551,0.377842593 C122.947463,0.377842593 123.253158,0.494101852 123.412055,0.728212963 C123.570145,0.943212963 123.64919,1.31508333 123.64919,1.84143519 L123.64919,17.8629167 C123.64919,19.4045463 123.925848,20.4500833 124.47997,20.9955463 C124.282357,21.5234907 123.956498,21.8945648 123.500779,22.1087685 C122.590954,21.7966204 121.98763,21.1428611 121.691614,20.1466944 C120.464802,21.5529537 119.021019,22.255287 117.360266,22.255287 C115.639019,22.255287 114.353326,21.5919722 113.503188,20.26375 C112.672408,18.9371204 112.257824,17.0913056 112.257824,14.7278981 C112.257824,13.5374352 112.415108,12.4831389 112.732095,11.5650093 C113.048275,10.6277685 113.463665,9.84739815 113.977458,9.22150926 C114.492058,8.57810185 115.076024,8.09952778 115.727743,7.78737963 C116.400433,7.45532407 117.093287,7.28969444 117.805499,7.28969444" id="Fill-19"></path>
                    <path d="M128.15839,2.5155 C128.475377,2.32040741 128.929483,2.22246296 129.523128,2.22246296 C130.096608,2.22246296 130.49264,2.31005556 130.709611,2.48603704 C130.928195,2.66201852 131.03547,3.0322963 131.03547,3.59846296 C131.03547,4.16542593 130.917709,4.54605556 130.680574,4.74114815 C130.442632,4.91712963 130.057085,5.00472222 129.523128,5.00472222 C129.048857,5.00472222 128.662504,4.93624074 128.366488,4.79927778 C128.089024,4.6432037 127.950292,4.24346296 127.950292,3.59846296 C127.950292,3.15014815 128.019658,2.78862963 128.15839,2.5155 M131.065314,9.54440741 L131.065314,21.9045185 C130.768491,21.9626481 130.403109,21.9913148 129.968361,21.9913148 C129.532807,21.9913148 129.167425,21.9626481 128.870603,21.9045185 L128.870603,10.5987037 C128.870603,10.0524444 128.781072,9.68137037 128.603624,9.48548148 C128.425369,9.29038889 128.109189,9.19324074 127.654276,9.19324074 L127.387297,9.19324074 C127.307445,8.97744444 127.267923,8.71387037 127.267923,8.40251852 C127.267923,8.08957407 127.307445,7.81644444 127.387297,7.58153704 C127.763165,7.54251852 128.069666,7.51305556 128.307608,7.49474074 C128.544743,7.45492593 128.73187,7.43581481 128.870603,7.43581481 L129.107738,7.43581481 C129.720741,7.43581481 130.195011,7.63090741 130.531356,8.02109259 C130.887866,8.39296296 131.065314,8.901 131.065314,9.54440741" id="Fill-21"></path>
                    <path d="M140.440707,20.5566278 C141.706235,20.5566278 142.665262,20.0294796 143.317787,18.9759796 C143.990477,17.9009796 144.326822,16.4859611 144.326822,14.7285352 C144.326822,13.9473685 144.247777,13.2060167 144.08888,12.502887 C143.951761,11.7806463 143.723498,11.1547574 143.407318,10.6276093 C143.090331,10.08135 142.685426,9.6521463 142.190991,9.33920185 C141.696556,9.0270537 141.102911,8.87097963 140.410863,8.87097963 C139.738174,8.87097963 139.155014,9.0270537 138.660579,9.33920185 C138.185502,9.63223889 137.790277,10.0423315 137.47329,10.5694796 C137.157916,11.0966278 136.919974,11.7217204 136.761077,12.4439611 C136.623958,13.1462944 136.554592,13.90835 136.554592,14.7285352 C136.554592,15.5487204 136.623958,16.3099796 136.761077,17.0131093 C136.919974,17.7162389 137.14743,18.3309796 137.444253,18.8581278 C137.76124,19.3852759 138.166144,19.8057204 138.660579,20.1170722 C139.155014,20.4101093 139.748659,20.5566278 140.440707,20.5566278 M144.50427,20.7039426 C143.456519,21.7375352 142.091782,22.2551278 140.410863,22.2551278 C139.421993,22.2551278 138.542012,22.0695907 137.770112,21.699313 C137.019184,21.3282389 136.376337,20.8209981 135.84238,20.1759981 C135.32778,19.511887 134.932555,18.7211648 134.65509,17.8038315 C134.398597,16.8665907 134.27035,15.8417574 134.27035,14.7285352 C134.27035,13.615313 134.398597,12.6008315 134.65509,11.6819056 C134.932555,10.7454611 135.32778,9.94518333 135.84238,9.28107222 C136.376337,8.61696111 137.019184,8.09936852 137.770112,7.72909074 C138.542012,7.35801667 139.421993,7.17168333 140.410863,7.17168333 C141.399734,7.17168333 142.270036,7.35801667 143.020965,7.72909074 C143.792864,8.09936852 144.43571,8.61696111 144.949504,9.28107222 C145.484268,9.94518333 145.889172,10.7454611 146.166637,11.6819056 C146.442488,12.6008315 146.58122,13.615313 146.58122,14.7285352 C146.58122,17.3451648 145.889172,19.3367019 144.50427,20.7039426" id="Fill-23"></path>
                </g>
                <path d="M21.4285714,43 C22.0304039,42.9947659 22.6315716,42.9669007 23.2320744,42.9164044 L23.2320744,40.6541001 C28.1007198,40.194445 33.3683799,37.9406519 34.5374932,31.8518519 L31.2137001,31.8856587 C30.2148331,35.3232863 27.2401779,37.7828863 21.2370005,37.7828863 C15.2338232,37.7828863 12.259168,35.3232863 11.260301,31.8856587 L7.93650794,31.8518519 C9.15948823,38.2194105 14.8634045,40.3889829 19.9069513,40.7015484 L19.9069513,42.9453227 C19.9219994,42.9468431 19.9371734,42.9483323 19.9524732,42.9497903 C8.80623713,42.1889636 0,32.8764361 0,21.5 C0,9.62575806 9.5937788,0 21.4285714,0 C33.2633641,0 42.8571429,9.62575806 42.8571429,21.5 C42.8571429,33.3742419 33.2633641,43 21.4285714,43 Z M27.1470744,20.130998 L15.3269267,20.130998 C15.2763848,19.4468108 15.2517789,18.737911 15.2517789,18.0127714 C15.2517789,17.53264 15.2664094,17.0638059 15.2883552,16.6006203 L27.1856459,16.6006203 C27.2075917,17.0638059 27.2222222,17.53264 27.2222222,18.0127714 C27.2222222,18.737911 27.1976163,19.4468108 27.1470744,20.130998 Z M15.7312616,22.9553001 L26.7427395,22.9553001 C25.9925917,26.3133954 24.2987739,28.6039044 21.2370005,28.6039044 C18.1752271,28.6039044 16.4814094,26.3133954 15.7312616,22.9553001 Z M26.8843897,13.7763182 L15.5896114,13.7763182 C16.255301,10.0369422 17.9657444,7.42163839 21.2370005,7.42163839 C24.5082567,7.42163839 26.2187001,10.0369422 26.8843897,13.7763182 Z M34.5374932,13.7763182 L30.94104,13.7763182 C30.1097592,7.65323116 27.2614587,3.18518519 21.2370005,3.18518519 C15.2125424,3.18518519 12.3642419,7.65323116 11.5329611,13.7763182 L7.93650794,13.7763182 L7.93650794,16.6006203 L11.2908922,16.6006203 C11.2729365,17.0659241 11.2616311,17.5361704 11.2616311,18.0127714 C11.2616311,18.7336745 11.2895621,19.4376318 11.3321237,20.130998 L7.93650794,20.130998 L7.93650794,22.9553001 L11.6446853,22.9553001 C12.5970005,28.7105218 15.4479611,32.8403576 21.2370005,32.8403576 C27.02604,32.8403576 29.8770005,28.7105218 30.8293158,22.9553001 L34.5374932,22.9553001 L34.5374932,20.130998 L31.1418774,20.130998 C31.184439,19.4376318 31.21237,18.7336745 31.21237,18.0127714 C31.21237,17.5361704 31.2010646,17.0659241 31.1831089,16.6006203 L34.5374932,16.6006203 L34.5374932,13.7763182 Z" id="Combined-Shape" fill="#831E18"></path>
            </g>
        </g>
    </g>
</svg>